<?xml version="1.0" encoding="UTF-8"?>
<svg width="800px" height="800px" version="1.1" viewBox="0 0 512 512" xml:space="preserve" xmlns="http://www.w3.org/2000/svg">

   <path d="m423.72 0h-335.45c-9.754 0-17.655 7.901-17.655 17.655v476.69c0 9.754 7.901 17.655 17.655 17.655h335.45c9.754 0 17.655-7.901 17.655-17.655v-476.69c0-9.754-7.9-17.655-17.655-17.655" fill="#E6EEF4"/>
   
      
      <path d="m98.869 100.63c-2.925 3.9-2.135 9.433 1.766 12.359 3.9 2.925 9.433 2.135 12.359-1.766l52.966-70.621c2.925-3.9 2.135-9.433-1.766-12.359-3.9-2.925-9.433-2.135-12.359 1.766l-52.966 70.621z" fill="#D71E00"/>
      <path d="m150.07 141.24c0 4.875 3.952 8.828 8.828 8.828s8.828-3.952 8.828-8.828v-105.93c0-4.875-3.952-8.828-8.828-8.828s-8.828 3.952-8.828 8.828v105.93z" fill="#D71E00"/>
      <path d="m105.93 97.103c-4.875 0-8.828 3.952-8.828 8.828 0 4.875 3.952 8.828 8.828 8.828h70.621c4.875 0 8.828-3.952 8.828-8.828 0-4.875-3.952-8.828-8.828-8.828h-70.621z" fill="#D71E00"/>
      <path d="m176.55 150.07c4.875 0 8.828-3.952 8.828-8.828s-3.952-8.828-8.828-8.828h-35.31c-4.875 0-8.828 3.952-8.828 8.828s3.952 8.828 8.828 8.828h35.31z" fill="#D71E00"/>
   <path d="m277.69 207.07c9.507-24.214 29.625-44.138 54.881-44.138 21.257 0 40.201 9.993 52.966 26.483 16.013 20.692 27.33 66.754-7.715 101.8-17.779 17.778-100.13 101.23-100.13 101.23s-82.353-83.456-100.13-101.24c-35.046-35.046-23.729-81.108-7.715-101.8 12.765-16.49 31.709-26.483 52.966-26.483 25.255 1e-3 45.373 19.925 54.88 44.139" fill="#d71e00"/><path d="m277.69 207.07c9.507-24.214 29.625-44.138 54.881-44.138 21.257 0 40.201 9.993 52.966 26.483 16.013 20.692 27.33 66.754-7.715 101.8-17.779 17.778-100.13 101.23-100.13 101.23s-82.353-83.456-100.13-101.24c-35.046-35.046-23.729-81.108-7.715-101.8 12.765-16.49 31.709-26.483 52.966-26.483 25.255 1e-3 45.373 19.925 54.88 44.139" fill="#d71e00"/>

</svg>
