<?xml version="1.0" encoding="UTF-8"?>
<svg width="800px" height="800px" version="1.1" viewBox="0 0 512 512" xml:space="preserve" xmlns="http://www.w3.org/2000/svg">

	<path d="m423.72 0h-335.45c-9.754 0-17.655 7.901-17.655 17.655v476.69c0 9.754 7.901 17.655 17.655 17.655h335.45c9.754 0 17.655-7.901 17.655-17.655v-476.69c0-9.754-7.9-17.655-17.655-17.655" fill="#E6EEF4"/>
	
		<path d="m150.07 44.138c4.875 0 8.828-3.952 8.828-8.828s-3.952-8.828-8.828-8.828h-44.138c-4.875 0-8.828 3.952-8.828 8.828s3.952 8.828 8.828 8.828h44.138z"/>
		<path d="m97.103 79.448c0 4.875 3.952 8.828 8.828 8.828 4.875 0 8.828-3.952 8.828-8.828v-44.138c0-4.875-3.952-8.828-8.828-8.828-4.875 0-8.828 3.952-8.828 8.828v44.138z"/>
		<path d="m126.54 134.38c20.041 0 36.29-16.249 36.29-36.29s-16.249-36.29-36.29-36.29c-10.545 0-20.385 4.533-27.223 12.283-3.226 3.656-2.877 9.234 0.779 12.46s9.234 2.877 12.46-0.779c3.519-3.988 8.556-6.308 13.984-6.308 10.29 0 18.635 8.345 18.635 18.635s-8.345 18.635-18.635 18.635c-5.428 0-10.459-2.322-13.984-6.317-3.226-3.656-8.804-4.004-12.46-0.779-3.656 3.226-4.004 8.804-0.779 12.46 6.841 7.753 16.674 12.29 27.223 12.29z"/>
		<path d="m282.48 361.93s44.323 44.323 79.448-8.828c18.282-27.666 5.888-54.616-13.603-73.242l-83.906-82.635c-4.723-4.025-11.979-4.025-16.711 0l-85.124 82.635c-16.746 17.523-31.011 45.506-12.518 73.242 35.31 52.966 79.448 8.828 79.448 8.828 0 22.625-6.444 51.703-8.324 59.683-0.256 1.112 0.6 2.11 1.739 2.11h66.145c1.139 0 1.986-0.997 1.73-2.101-1.871-8.006-8.324-37.208-8.324-59.692"/>
	

</svg>
