<?xml version="1.0" encoding="UTF-8"?>
<svg width="800px" height="800px" version="1.1" viewBox="0 0 512 512" xml:space="preserve" xmlns="http://www.w3.org/2000/svg">

   <path d="m423.72 0h-335.45c-9.754 0-17.655 7.901-17.655 17.655v476.69c0 9.754 7.901 17.655 17.655 17.655h335.45c9.754 0 17.655-7.901 17.655-17.655v-476.69c0-9.754-7.9-17.655-17.655-17.655" fill="#3a3a3a"/><path d="m273.23 399.53c0.62099-0.25058 1.6372-0.25058 2.2582 0 0.621 0.25059 0.11291 0.4556-1.1291 0.4556s-1.7501-0.20504-1.1291-0.4556zm17.631-4.5441c0.87885-0.229 2.0983-0.21396 2.7098 0.0335 0.61154 0.24744-0.10755 0.43481-1.5979 0.41641-1.4904-0.0185-1.9907-0.22085-1.1119-0.44987zm-49.471-7.1832c-10.347-1.1926-24.697-5.4108-38.389-11.285-13.177-5.6531-16.083-7.1045-18.926-9.4504-1.2652-1.044-3.2022-2.3725-4.3043-2.9522-1.1022-0.57976-3.1037-2.9774-4.4478-5.328-1.3441-2.3506-4.3038-6.1117-6.577-8.3579-11.293-11.159-22.649-27.979-27.863-41.27-2.9368-7.4864-8.2884-23.362-10.121-30.022-0.9513-3.4584-1.2351-3.7856-2.0384-2.3501-0.94688 1.6919-0.70691 6.3541 1.1181 21.723 0.89841 7.5659 6.2276 25.55 8.3708 28.249 0.50273 0.63299 0.66248 1.4025 0.35499 1.71-0.30751 0.30749-0.81449-0.10642-1.1266-0.91991-0.31214-0.81345-0.92131-1.2604-1.3537-0.99314-0.91824 0.5675 5.0517 12.077 10.186 19.637 1.9575 2.8825 7.4943 9.35 12.304 14.372 10.475 10.938 7.8198 10.192-3.3293-0.93559-7.3812-7.3668-16.019-19.828-17.744-25.596-0.34574-1.1564-1.6026-3.8009-2.793-5.8766-2.5996-4.5328-2.8687-6.5045-0.64034-4.6919 1.3561 1.1031 1.4441 1.0406 0.79878-0.56685-0.39888-0.9936-1.0688-3.2292-1.4886-4.968-0.41987-1.7388-1.7955-6.1007-3.057-9.6931s-2.2941-8.4701-2.2948-10.839c-6.9e-4 -2.3691-0.55214-7.5592-1.2254-11.534-3.0254-17.858-0.92012-56.206 3.4723-63.248 0.62647-1.0044 1.4253-3.6465 1.7752-5.8712 0.65109-4.1397 5.0702-15.392 9.6255-24.509 1.9212-3.8451 2.2604-5.2207 1.3715-5.5618-0.64956-0.24926-1.7539-0.0906-2.454 0.35267-0.70014 0.44322-0.91724 0.81209-0.48245 0.8197 0.4348 7e-3 -1.0313 1.7594-3.258 3.8929-2.512 2.4069-5.302 6.5206-7.3514 10.839-1.8166 3.8281-3.4799 6.9602-3.6962 6.9602-0.4135 0 1.7401-5.8095 3.0136-8.1294 0.40907-0.7452 2.25-4.0986 4.091-7.452 2.4679-4.4953 2.9946-6.097 2.0048-6.097-1.8152 0-4.1783 3.5621-8.0892 12.194-2.1207 4.6807-3.2654 6.4307-3.2497 4.968 0.0127-1.242 0.71605-3.5458 1.5616-5.1195 7.9906-14.873 15.536-26.156 22.248-33.269 2.3438-2.484 4.015-4.0254 3.714-3.4254-0.42731 0.85171-0.0951 0.85146 1.5148-1e-3 3.6285-1.9217 10.643-7.0238 10.643-7.7413 0-0.38144 1.5456-1.5622 3.4346-2.6239 1.889-1.0617 4.2262-2.8113 5.1938-3.888 2.9232-3.2531 16.606-11.851 22.925-14.406 11.277-4.5594 27.644-9.8381 36.643-11.818 9.3943-2.0668 25.091-2.6838 37.486-1.4734 16.434 1.6047 20.553 1.7146 25.291 0.67472 7.0304-1.543 9.3685-1.4301 12.317 0.59465 1.4228 0.9771 5.5029 2.8309 9.0668 4.1195s9.3792 4.0363 12.923 6.106c7.5404 4.4039 29.776 24.182 35.784 31.829 2.2891 2.9137 5.3813 6.1936 6.8715 7.2887 1.4902 1.0951 3.6982 3.8203 4.9066 6.0558 1.2084 2.2356 3.4112 5.6906 4.8952 7.6778 1.4839 1.9872 3.7125 5.5438 4.9523 7.9036s2.577 4.2905 2.9715 4.2905c0.3945 0 1.2477 2.134 1.896 4.7422s1.933 7.0323 2.8549 9.8313c1.7084 5.1869 5.3405 26.494 5.3405 31.329 0 1.4665-0.67533 4.7574-1.5007 7.3131-1.4838 4.5943-3.1984 5.6287-3.7538 2.2645-0.15758-0.95468-1.557-2.5487-3.1098-3.5423-1.8875-1.2077-3.3082-3.2174-4.2862-6.063l-1.4629-4.2565-1.6848 5.8912c-1.0428 3.6466-2.3432 6.2437-3.4129 6.8161-1.4797 0.79194-1.651 1.5956-1.1911 5.5913 1.3161 11.436 0.9122 14.945-3.604 31.313-3.3 11.96-6.8033 21.118-10.835 28.322-1.5341 2.7416-3.0444 7.6727-4.0288 13.153-2.7204 15.146-6.6598 20.38-18.164 24.135-2.6618 0.86881-5.8559 2.1084-7.0979 2.7545-1.242 0.64615-2.8906 1.1773-3.6635 1.1804-0.77296 3e-3 -4.4312 1.9644-8.1294 4.3584-7.0529 4.5657-13.022 7.844-19.821 10.887-2.2356 1.0004-6.3003 2.9975-9.0327 4.4379-8.4594 4.4596-13.603 6.5711-18.41 7.5572-2.543 0.52166-6.2495 1.2963-8.2366 1.7213-3.469 0.74202-20.566 0.91727-26.195 0.26851zm47.22-18.274c8.5503-1.5319 11.596-2.5658 18.969-6.4399 10.182-5.3501 22.504-15.599 32.202-26.784 3.514-4.0528 7.0764-7.6292 7.9166-7.9476 1.7246-0.65353 7.1909-8.9784 11.498-17.511 4.0771-8.0767 8.7108-22.619 10.385-32.593 1.4055-8.3728 1.9275-27.471 0.85988-31.455-0.55652-2.0767-3.3671-2.7982-4.3986-1.1291-1.0381 1.6797-4.0142 0.91682-5.5465-1.4218-2.2458-3.4274-2.2262-15.051 0.0332-19.768 2.297-4.7961 2.0718-7.65-1.1462-14.527-3.5855-7.6621-6.67-12.032-14.682-20.799-7.1935-7.8716-23.636-22.972-25.013-22.972-0.46506 0-1.3267-0.57973-1.9147-1.2883-2.6578-3.2024-18.219-12.777-23.992-14.761-9.9005-3.4035-24.281-4.3269-38.756-2.4887-6.4525 0.8194-12.048 1.6851-12.434 1.9237-0.38617 0.23868-3.6593 1.0266-7.2737 1.7511-27.032 5.4179-27.234 5.475-35.061 9.9136-16.245 9.2124-25.912 16.627-31.608 24.246-2.2188 2.9676-5.1026 6.6484-6.4084 8.1796-3.3776 3.9605-12.832 23.145-15.616 31.688-5.9106 18.136-6.909 36.625-2.878 53.293 2.5653 10.607 10.867 32.998 16.913 45.615 4.7845 9.9855 9.4004 15.897 18.038 23.102 9.5149 7.9361 20.211 12.852 39.151 17.994 8.3909 2.2781 15.638 4.3778 16.104 4.6661 4.2385 2.6195 39.051 2.3095 54.659-0.48679zm-88.165-81.18c-0.96916-1.8822-4.1695-11.764-5.5579-17.162l-0.98747-3.8389h-13.409l-1.3508 4.5486c-0.74294 2.5017-1.8278 6.9729-2.4107 9.9359l-1.0599 5.3874h-4.4272c-3.2425 0-4.577-0.39043-4.9871-1.4591-0.30793-0.8025 0.58811-5.0513 1.9912-9.4418l2.5511-7.9827-1.6794-3.7241c-1.8423-4.0855-1.1706-5.3509 2.8558-5.3796 1.6003-0.0113 2.3781-1.2418 4.4344-7.0141 4.4246-12.421 4.458-12.479 7.737-13.42 2.7246-0.78246 3.0196-1.1762 2.7651-3.6908-0.27267-2.6941-0.0988-2.8546 4.0511-3.7397 5.0172-1.0701 5.2517-0.87123 6.0707 5.1472 1.5643 11.495 8.6172 38.795 11.515 44.572 2.3957 4.776 2.1375 5.7542-1.9503 7.3899-4.5702 1.8286-5.1505 1.8166-6.1517-0.12773zm-8.5942-30.711c-0.23851-0.8694-0.91644-3.7159-1.5065-6.3256-0.59008-2.6097-1.3869-4.939-1.7708-5.1762-0.38382-0.23724-1.6177 2.1012-2.742 5.1966-1.1243 3.0953-2.2355 6.136-2.4694 6.757-0.3061 0.81259 0.88483 1.1291 4.2485 1.1291 4.0143 0 4.6126-0.22306 4.2402-1.5807zm142.37 31.543c-0.55544-0.34328-1.2894-1.7379-1.6311-3.0991-0.70863-2.8234-0.94434-2.8887-4.0384-1.12-1.242 0.70998-4.6355 1.3053-7.5412 1.3229-4.765 0.0291-5.5399-0.24304-7.9036-2.7733-2.1294-2.2796-2.6206-3.6084-2.6206-7.0906 0-6.2175 3.6693-10.998 10.365-13.503 2.7822-1.041 5.8562-1.8926 6.8312-1.8926 0.97495 0 1.7726-0.3567 1.7726-0.79267 0-1.8136-3.0414-3.055-8.5722-3.499-4.9649-0.39853-5.88-0.7339-5.88-2.1548 0-0.92558 0.86734-2.5502 1.9274-3.6103 1.7154-1.7154 2.6094-1.8702 8.1265-1.4077 7.3397 0.61534 10.774 2.4142 13.346 6.9898 1.5908 2.8305 1.8917 4.8951 1.8917 12.982 0 6.5687 0.43595 10.66 1.3756 12.908 0.75658 1.8108 1.0614 3.6056 0.67745 3.9886-1.4193 1.4153-7.1489 3.3553-8.1261 2.7514zm-4.5404-12.559c0.98438-0.88711 1.5807-2.7348 1.5807-4.8976 0-3.1874-0.20429-3.4728-2.484-3.4697-3.2825 4e-3 -8.0308 2.9711-8.8409 5.5236-0.4863 1.5322-0.12787 2.459 1.443 3.731 2.3224 1.8806 5.6211 1.528 8.3012-0.88733zm-33.679 11.391c-0.0178-0.18769-0.11926-5.9633-0.22583-12.835-0.17353-11.197-0.37564-12.627-1.947-13.775-2.4753-1.8089-3.8768-1.6045-6.4171 0.93583-2.0833 2.0833-2.2171 2.8124-2.2171 12.083 0 11-0.28376 11.595-5.7547 12.054l-3.4695 0.29139 0.13083-17.162c0.1434-18.813 0.32024-19.42 5.6529-19.42 2.0558 0 2.5372 0.39987 2.5372 2.1076 0 3.1888 0.75111 3.3608 4.2642 0.97673 5.989-4.0642 11.1-2.6104 14.04 3.9932 1.5018 3.3739 1.9447 6.5526 2.2232 15.956 0.19135 6.4584 8e-3 12.231-0.4067 12.829-0.68418 0.98527-8.3342 2.7721-8.4104 1.9644zm-79.586-1.3708c-0.19825-0.42735-0.21863-8.5727-0.0453-18.101l0.31514-17.324 2.775-0.96738c4.6141-1.6085 5.2153-1.3035 5.2153 2.6457 0 3.8356 0.84311 4.5074 2.7592 2.1986 1.6067-1.936 5.7823-4.0051 8.0823-4.0051 1.7229 0 1.8733 0.43893 1.6256 4.7422-0.25857 4.4911-0.41218 4.758-2.9016 5.0419-3.6959 0.42149-6.9096 2.7589-8.2244 5.9819-0.61723 1.513-1.194 6.206-1.2817 10.429-0.0876 4.2228-0.47687 7.9974-0.86485 8.388-1.0705 1.0778-7.0442 1.8551-7.4547 0.97001zm30.729-2.5284c-4.7948-3.2582-6.4653-7.4909-6.0672-15.374 0.39635-7.8488 3.2639-12.974 8.8549-15.826 6.2625-3.1949 16.843-1.8863 18.442 2.2808 0.97 2.5278 0.61213 7.6293-0.71316 10.166-1.7144 3.2817-5.5545 6.7988-10.434 9.556-5.0632 2.8613-3.5682 3.7016 5.4392 3.0571 5.7478-0.41125 6.2685-0.30352 6.2685 1.2968 0 2.0214-1.6287 5.3919-3.0708 6.3549-0.54663 0.36499-4.2529 0.66984-8.2361 0.67745-6.2018 0.0113-7.708-0.30265-10.484-2.1892zm6.4008-15.393c6.9656-3.6021 8.9252-12.866 2.192-10.362-2.9858 1.1102-5.7702 5.2888-5.7702 8.6594 0 3.4727 0.0809 3.5112 3.5782 1.7028zm13.132-113.3c-3.6558-0.35454-4.8811-0.74608-3.765-1.203 1.99-0.81479 8.0245-0.89262 10.014-0.12914 1.6914 0.64907 1.927 2.2285 0.29971 2.0097-0.621-0.0836-3.5679-0.38837-6.5487-0.67745zm83.791 192.19c2.656-1.4097 6.1062-7.7836 7.0879-13.094 0.50969-2.7572 0.75647-5.1833 0.54838-5.3914-0.20808-0.20807-2.4377 2.3722-4.9547 5.7338-2.517 3.3617-6.6426 8.1292-9.1681 10.595s-4.5917 4.7806-4.5917 5.1451c0 0.70287 8.3858-1.5589 11.078-2.9879zm-200.36-41.963c-4.0795-10.712-8.493-25.88-9.1052-31.292-0.32313-2.8566-0.98012-5.1938-1.46-5.1938-0.47989 0-0.6174 1.0164-0.30559 2.2588 0.3118 1.2423 0.80615 4.1892 1.0985 6.5487 1.1794 9.5166 5.1191 22.309 9.8976 32.138 2.6006 5.349 2.5202 2.4876-0.12547-4.459zm-7.915-72.786c-0.28834-0.72057-0.50237-0.50654-0.54573 0.54573-0.0392 0.95218 0.17429 1.4857 0.47443 1.1855 0.30015-0.30014 0.33223-1.0792 0.0713-1.7312zm0.90327-4.5163c-0.28834-0.72057-0.50239-0.50653-0.54572 0.54573-0.0392 0.95218 0.17428 1.4857 0.47442 1.1855 0.30015-0.30015 0.33223-1.0792 0.0713-1.7313zm237.84-8.1858c-4e-3 -2.0161-3.3757-8.4387-4.0676-7.7467-0.19833 0.19832 0.26062 2.4798 1.0199 5.0698 1.4197 4.843 3.0537 6.2782 3.0477 2.6769zm-227.17-32.292c0.30704-0.4968 0.12773-0.90327-0.39832-0.90327-0.52611 0-0.95658 0.40647-0.95658 0.90327 0 0.49679 0.17923 0.90326 0.39833 0.90326 0.21907 0 0.64953-0.40647 0.95657-0.90326zm201.42-7.3798c-4.2616-5.8422-6.4097-7.9757-8.0302-7.9757-0.50267 0 0.53301 1.5243 2.3015 3.3872 1.7685 1.863 4.5679 5.3983 6.2208 7.8564 1.653 2.458 3.1568 4.0147 3.3419 3.4594 0.18513-0.55536-1.5402-3.5826-3.8341-6.7273zm-196.46 0.7956c0-0.68047 11.889-12.542 15.783-15.747 1.9453-1.6008 3.2718-3.1757 2.9478-3.4996-1.103-1.103-17.683 14.134-20.619 18.948-2.2865 3.7497-2.2268 5.9574 0.0817 3.0226 0.99361-1.2631 1.8066-2.4892 1.8066-2.7247zm200.31-0.29272c-0.59157-1.2983-1.231-1.8944-1.4209-1.3245-0.18995 0.56985 0.14931 1.6321 0.75389 2.3606 1.6383 1.9741 1.8727 1.61 0.66705-1.0361zm-0.15459-9.8123c-0.73338-2.922-11.561-14.381-19.94-21.103-3.7478-3.0066-11.762-7.811-19.454-11.662-12.632-6.3246-13.235-6.5257-17.573-5.8636l-4.492 0.68571 13.073 6.5294c12.752 6.369 16.683 8.7383 32.493 19.585 9.7042 6.6576 10.594 7.439 13.28 11.667 2.3963 3.7718 3.5373 3.8423 2.6135 0.16163zm-15.893-1.6877c0-0.17141-0.91456-1.086-2.0324-2.0324l-2.0324-1.7207 1.7207 2.0324c1.617 1.9099 2.344 2.4436 2.344 1.7207zm7.9788-15.799c-0.6865-1.7225-15.187-14.513-18.96-16.724-3.7079-2.173-8.1817-3.5324-15.666-4.76-1.9603-0.32159-0.96102 0.50912 3.6131 3.0034 3.4776 1.8964 8.2714 4.8664 10.653 6.6 13.944 10.151 21.405 14.504 20.359 11.881zm-130.3-13.128c11.135-3.3293 19.622-4.482 33.58-4.561 7.0792-0.0401 12.871-0.34843 12.872-0.68528 5.3e-4 -1.2285-10.515-1.8779-22.051-1.3618-8.2514 0.36912-14.351 1.1975-20.199 2.7432-7.4263 1.9629-12.849 4.3156-12.849 5.5748 0 0.74501 1.291 0.48975 8.6477-1.7098zm-53.445 224.12-1.7207-2.0323 2.0324 1.7207c1.9099 1.617 2.4435 2.344 1.7207 2.344-0.1714 0-1.086-0.91455-2.0323-2.0324zm-33.16-29.808c-3.0294-4.0895-10.011-18.133-13.134-26.421-5.4179-14.376-9.4068-34.778-7.4554-38.131 0.72487-1.2455 0.94487-0.36413 0.96608 3.8702 0.0181 3.6104 1.2542 9.78 3.6196 18.065 4.697 16.452 7.6568 24.159 13.785 35.894 2.7738 5.3115 4.897 9.6572 4.718 9.6572-0.17889 0-1.3039-1.321-2.4999-2.9356zm9.1877-0.4461c-3.2169-3.8822-3.5802-4.961-0.7722-2.2926 1.6824 1.5986 2.8401 3.1254 2.5727 3.3928-0.26736 0.26738-1.0776-0.22771-1.8005-1.1001zm238.83-150.96c-2.5984-4.3942-7.5844-11.299-11.08-15.344-7.047-8.155-7.2597-10.155-0.26622-2.5034 6.8562 7.5018 16.522 21.395 16.522 23.747 0 1.1617-0.10161 2.1072-0.22581 2.1011-0.1242-6e-3 -2.3518-3.6063-4.9502-8.0006zm-85.32-63.963c0.65205-0.26093 1.4311-0.22883 1.7313 0.0713 0.30015 0.30015-0.23334 0.51363-1.1855 0.47441-1.0523-0.0433-1.2663-0.25738-0.54573-0.54572zm-11.573-3.8993c-1.8153-0.58136-1.9039-0.72838-0.45163-0.74974 0.99359-0.0147 2.6195 0.32279 3.6131 0.74974 2.3017 0.98909-0.073 0.98909-3.1614 0zm-50.398-1.357c3.5733-1.3132 12.315-2.8198 11.554-1.9913-0.54049 0.58848-12.277 3.3766-13.827 3.2847-0.59018-0.035 0.43273-0.61703 2.2731-1.2934zm44.753-0.14445c0.62099-0.25057 1.6372-0.25057 2.2582 0 0.621 0.25059 0.11291 0.4556-1.1291 0.4556s-1.7501-0.205-1.1291-0.4556zm-5.3631-0.92208c0.65203-0.26093 1.4311-0.22884 1.7313 0.0713 0.30015 0.30016-0.23334 0.51364-1.1855 0.47442-1.0523-0.0433-1.2663-0.25738-0.54572-0.54572zm-11.799-0.88444c0.62099-0.25058 1.6372-0.25058 2.2582 0 0.621 0.25057 0.11291 0.45559-1.1291 0.45559s-1.7501-0.205-1.1291-0.45559z" fill="#f9f9f9" stroke-width=".90326"/>
   

</svg>
