<?xml version="1.0" encoding="UTF-8" standalone="no"?>
<!-- Created with Inkscape (http://www.inkscape.org/) -->

<svg
   width="92.074997mm"
   height="92.339584mm"
   viewBox="0 0 92.074997 92.339584"
   version="1.1"
   id="svg443"
   xml:space="preserve"
   inkscape:version="1.2.2 (b0a8486541, 2022-12-01)"
   sodipodi:docname="logo_inkscape.svg"
   xmlns:inkscape="http://www.inkscape.org/namespaces/inkscape"
   xmlns:sodipodi="http://sodipodi.sourceforge.net/DTD/sodipodi-0.dtd"
   xmlns="http://www.w3.org/2000/svg"
   xmlns:svg="http://www.w3.org/2000/svg"><sodipodi:namedview
     id="namedview445"
     pagecolor="#ffffff"
     bordercolor="#000000"
     borderopacity="0.25"
     inkscape:showpageshadow="2"
     inkscape:pageopacity="0.0"
     inkscape:pagecheckerboard="0"
     inkscape:deskcolor="#d1d1d1"
     inkscape:document-units="mm"
     showgrid="false"
     inkscape:zoom="1.6819304"
     inkscape:cx="356.43567"
     inkscape:cy="251.79401"
     inkscape:window-width="1920"
     inkscape:window-height="1131"
     inkscape:window-x="0"
     inkscape:window-y="0"
     inkscape:window-maximized="1"
     inkscape:current-layer="layer1" /><defs
     id="defs440" /><g
     inkscape:label="Layer 1"
     inkscape:groupmode="layer"
     id="layer1"
     transform="translate(78.073029,27.704866)"><path
       style="fill:#000000;stroke-width:0.264583"
       d="m -27.074593,61.019906 c 0.181901,-0.0734 0.479557,-0.0734 0.661458,0 0.181901,0.0734 0.03307,0.133454 -0.330729,0.133454 -0.363802,0 -0.51263,-0.06006 -0.330729,-0.133454 z m 5.16441,-1.331042 c 0.257431,-0.06708 0.614619,-0.06267 0.79375,0.0098 0.179131,0.07248 -0.03149,0.127363 -0.468056,0.121971 -0.436563,-0.0054 -0.583126,-0.06469 -0.325694,-0.131773 z m -14.490972,-2.104083 c -3.030935,-0.349332 -7.23415,-1.584936 -11.244792,-3.305588 -3.859715,-1.6559 -4.711149,-2.081037 -5.543895,-2.768187 -0.370597,-0.305803 -0.937968,-0.694946 -1.260824,-0.864761 -0.322856,-0.169818 -0.909142,-0.872117 -1.302858,-1.560664 -0.393716,-0.688549 -1.260654,-1.790231 -1.92653,-2.448187 -3.307946,-3.268591 -6.634331,-8.195521 -8.161564,-12.08863 -0.860259,-2.192909 -2.427844,-6.843085 -2.964489,-8.79403 -0.27865,-1.013018 -0.361774,-1.108858 -0.597074,-0.688401 -0.277354,0.495604 -0.207064,1.861233 0.32752,6.363176 0.263162,2.21619 1.824192,7.4842 2.451957,8.274625 0.147261,0.185417 0.194053,0.410816 0.103981,0.500888 -0.09007,0.09007 -0.238577,-0.03118 -0.330011,-0.269457 -0.09143,-0.238273 -0.269868,-0.369181 -0.396519,-0.290907 -0.268969,0.166232 1.47973,3.537566 2.9836,5.752113 0.573377,0.844336 2.195216,2.738787 3.604085,4.209891 3.068385,3.20393 2.290582,2.985355 -0.975215,-0.27405 -2.162101,-2.157867 -4.692402,-5.80789 -5.197563,-7.497614 -0.101273,-0.338746 -0.469425,-1.113356 -0.818116,-1.721353 -0.761478,-1.327753 -0.840301,-1.905296 -0.187571,-1.374344 0.397222,0.323112 0.423005,0.304814 0.23398,-0.166042 -0.116837,-0.291041 -0.313057,-0.945885 -0.436043,-1.455208 -0.122986,-0.509323 -0.525933,-1.787009 -0.895439,-2.839302 -0.369505,-1.052293 -0.67199,-2.481043 -0.672189,-3.175 -1.99e-4,-0.693957 -0.161729,-2.21424 -0.358956,-3.378406 -0.886191,-5.230913 -0.269518,-16.463714 1.017098,-18.5266122 0.183503,-0.2942193 0.417499,-1.0681256 0.519991,-1.7197917 0.190715,-1.2126066 1.485144,-4.5085662 2.819496,-7.17918042 0.56275,-1.1263048 0.66211,-1.52924668 0.40173,-1.62916528 -0.190269,-0.073013 -0.51374,-0.026527 -0.718825,0.1033026 -0.205084,0.1298284 -0.268678,0.2378763 -0.141319,0.24010409 0.12736,0.002117 -0.302089,0.51536336 -0.95433,1.14029861 -0.735821,0.70501934 -1.553067,1.909998 -2.153363,3.175 -0.532109,1.1213148 -1.01932,2.0387522 -1.08269,2.0387522 -0.121121,0 0.50971,-1.7017074 0.882739,-2.38125 0.119824,-0.2182813 0.659073,-1.2005469 1.198331,-2.18281253 0.72289,-1.31675453 0.877161,-1.78593751 0.587231,-1.78593751 -0.531723,0 -1.223893,1.04341613 -2.369472,3.57187504 -0.621195,1.3710655 -0.956505,1.8836666 -0.951903,1.4552083 0.0039,-0.3638021 0.209744,-1.0386245 0.457416,-1.4996028 2.340594,-4.3564339 4.550788,-7.6615597 6.516776,-9.7451889 0.686524,-0.7276042 1.176078,-1.1791157 1.087899,-1.003359 -0.125168,0.2494825 -0.02787,0.2494071 0.443697,-3.44e-4 1.062865,-0.5629129 3.117565,-2.0574105 3.117565,-2.2675785 0,-0.111734 0.452726,-0.457599 1.006058,-0.768589 0.553332,-0.31099 1.237942,-0.823481 1.521354,-1.138868 0.856276,-0.952882 4.864221,-3.471489 6.715256,-4.219891 3.303185,-1.335528 8.097486,-2.88176 10.733373,-3.461671 2.751767,-0.605404 7.349535,-0.786127 10.980208,-0.431596 4.813742,0.470056 6.020406,0.502248 7.408333,0.197641 2.059345,-0.451961 2.744221,-0.418896 3.60785,0.174183 0.416777,0.286212 1.6119,0.829214 2.65583,1.206671 1.043929,0.377458 2.747353,1.182304 3.785388,1.788549 2.2087389,1.289972 8.721857,7.083265 10.48171178,9.323276 0.67051765,0.8534648 1.57627102,1.8142143 2.01278062,2.1349986 0.4365096,0.3207845 1.0832597,1.1190258 1.4372245,1.7738696 0.3539649,0.6548437 0.9992122,1.666875 1.4338882,2.2489583 0.4346734,0.5820834 1.0874507,1.62388024 1.4506125,2.3151042 0.3631618,0.691224 0.754843,1.2567708 0.8704024,1.2567708 0.1155568,0 0.3654822,0.6250782 0.5553868,1.3890626 0.1899047,0.7639843 0.5662216,2.0598871 0.8362606,2.8797805 0.5004065,1.5193354 1.5643304,7.7606554 1.5643304,9.1768564 0,0.429569 -0.1978157,1.393534 -0.4395893,2.142143 C 8.8944118,18.862079 8.3921639,19.165061 8.229498,18.179618 8.1833388,17.899974 7.7734225,17.433051 7.3185747,17.142009 6.7656961,16.78824 6.3495436,16.199582 6.0630633,15.366052 L 5.6345495,14.119258 5.1410486,15.844916 c -0.3054667,1.068144 -0.6863767,1.828882 -0.9997069,1.996572 -0.433443,0.231971 -0.4835922,0.467389 -0.3488928,1.6378 0.3855191,3.349763 0.2672027,4.377746 -1.0556716,9.172096 -0.966634,3.503269 -1.99280453,6.185734 -3.17367431,8.296156 -0.44935773,0.80308 -0.89177019,2.247474 -1.18011839,3.852863 -0.7968456,4.43648 -1.9507887,5.969746 -5.3206648,7.069672 -0.7797032,0.254492 -1.715299,0.617572 -2.0791011,0.806842 -0.363802,0.189267 -0.8467036,0.344857 -1.0731157,0.345754 -0.226412,7.94e-4 -1.297974,0.575398 -2.38125,1.276668 -2.065917,1.337392 -3.814244,2.297668 -5.806051,3.188999 -0.654843,0.293042 -1.845468,0.87802 -2.645833,1.299954 -2.477926,1.306306 -3.984635,1.924806 -5.392544,2.213631 -0.744881,0.152807 -1.830581,0.379701 -2.412664,0.504206 -1.016135,0.217349 -6.024126,0.268684 -7.672916,0.07865 z m 13.831471,-5.352698 c 2.504535,-0.448709 3.39661,-0.75157 5.55625,-1.886363 2.982428,-1.567129 6.591834,-4.569261 9.432475,-7.845478 1.0293085,-1.18714 2.0728172,-2.234734 2.3189088,-2.327989 0.5051742,-0.191431 2.1063558,-2.629924 3.3680267,-5.129284 1.19425502,-2.365804 2.5515516,-6.625667 3.041933,-9.547064 0.4116837,-2.452558 0.5646129,-8.046826 0.251878,-9.213792 C 1.2367698,15.67381 0.41350026,15.462485 0.11134345,15.951384 -0.19274216,16.443403 -1.0644834,16.219936 -1.5133331,15.534904 -2.1711534,14.530942 -2.1654384,11.126326 -1.5036229,9.7444498 -0.83079279,8.3395916 -0.89675606,7.5036194 -1.8393818,5.4892724 -2.8896426,3.2449178 -3.7931497,1.9649959 -6.1399879,-0.60302876 -8.2471084,-2.9087585 -13.063329,-7.3319492 -13.466806,-7.3319492 c -0.136226,0 -0.388614,-0.1698143 -0.560866,-0.3773651 -0.778515,-0.9380538 -5.336728,-3.7425387 -7.027651,-4.3238317 -2.900029,-0.996949 -7.112243,-1.267434 -11.352333,-0.728984 -1.890049,0.240018 -3.529,0.493594 -3.642112,0.563501 -0.113112,0.06991 -1.071885,0.300719 -2.130607,0.512914 -7.918146,1.586998 -7.977349,1.603737 -10.270077,2.9038912 -4.758569,2.698473 -7.590148,4.8705 -9.258594,7.1020136 -0.649931,0.86926873 -1.494643,1.94744582 -1.877138,2.39594632 -0.989364,1.16009478 -3.758608,6.77956428 -4.574178,9.28212318 -1.731307,5.3124707 -2.02378,10.7282857 -0.843018,15.6104167 0.751419,3.106915 3.183227,9.665772 4.953988,13.361458 1.401459,2.92493 2.753563,4.65658 5.283755,6.766942 2.787088,2.324634 5.920048,3.764573 11.467993,5.270809 2.457852,0.667293 4.580607,1.282348 4.717238,1.36679 1.241533,0.76731 11.438892,0.676492 16.010722,-0.142592 z M -48.394908,28.452947 c -0.283885,-0.551328 -1.221311,-3.44596 -1.628021,-5.027083 l -0.289248,-1.12448 h -1.963926 -1.963927 l -0.395668,1.33236 c -0.217618,0.732798 -0.535377,2.042485 -0.706132,2.910417 l -0.310464,1.578057 h -1.296797 c -0.949787,0 -1.340683,-0.114366 -1.460802,-0.427392 -0.0902,-0.235067 0.172265,-1.479624 0.583265,-2.765682 l 0.747271,-2.33829 -0.491915,-1.090871 c -0.539647,-1.196724 -0.342879,-1.567392 0.836503,-1.575798 0.468753,-0.0033 0.696599,-0.363738 1.298916,-2.054572 1.296062,-3.638322 1.305843,-3.655287 2.266294,-3.931107 0.798087,-0.229196 0.884501,-0.344535 0.809952,-1.081101 -0.07987,-0.789146 -0.02894,-0.83616 1.18664,-1.095417 1.469623,-0.313442 1.538314,-0.255199 1.778217,1.507707 0.458219,3.367164 2.52413,11.363661 3.373059,13.056044 0.701744,1.398966 0.626118,1.685523 -0.571278,2.164625 -1.338691,0.535639 -1.508685,0.532109 -1.801939,-0.03742 z m -2.517399,-8.995833 c -0.06986,-0.254662 -0.268441,-1.088467 -0.441291,-1.852899 -0.172847,-0.764434 -0.406258,-1.446731 -0.518689,-1.516218 -0.112431,-0.06949 -0.473865,0.615492 -0.803188,1.522171 -0.329322,0.90668 -0.654827,1.797336 -0.723344,1.979237 -0.08966,0.238022 0.259184,0.330729 1.244478,0.330729 1.175859,0 1.351129,-0.06534 1.242034,-0.46302 z m 41.7041288,9.239501 c -0.1626976,-0.100552 -0.3776927,-0.509053 -0.477766,-0.907778 -0.2075709,-0.827021 -0.276614,-0.846169 -1.1829208,-0.328078 -0.363802,0.207968 -1.357831,0.382344 -2.20895,0.387499 -1.395775,0.0085 -1.622751,-0.07119 -2.315104,-0.812356 -0.623755,-0.667732 -0.767612,-1.056971 -0.767612,-2.076969 0,-1.821232 1.074801,-3.221452 3.03602,-3.95524 0.814961,-0.304916 1.715404,-0.554392 2.000988,-0.554392 0.285583,0 0.519242,-0.104484 0.519242,-0.232188 0,-0.531233 -0.890897,-0.894879 -2.510967,-1.024921 -1.454317,-0.11674 -1.722366,-0.214972 -1.722366,-0.631198 0,-0.271119 0.254058,-0.747001 0.564573,-1.057516 0.502462,-0.502462 0.764339,-0.547825 2.38039,-0.41234 2.1499272,0.180242 3.1559815,0.707152 3.9092634,2.047438 0.4659815,0.829101 0.5541063,1.433873 0.5541063,3.802642 0,1.924093 0.1276985,3.122369 0.4029472,3.781134 0.2216203,0.530413 0.3109171,1.056161 0.1984375,1.168326 -0.4157398,0.414578 -2.0940527,0.982837 -2.3802816,0.805937 z m -1.3299568,-3.678727 c 0.288343,-0.25985 0.46302,-0.801061 0.46302,-1.434595 0,-0.933661 -0.05984,-1.017243 -0.727604,-1.016336 -0.961517,0.0013 -2.352365,0.870281 -2.589675,1.617978 -0.142444,0.448807 -0.03745,0.720288 0.422669,1.092869 0.680284,0.55086 1.646523,0.447577 2.43159,-0.259916 z m -9.865159,3.336584 c -0.0052,-0.05498 -0.03495,-1.746774 -0.06615,-3.759547 -0.05083,-3.279704 -0.110029,-3.698542 -0.570307,-4.034896 -0.725061,-0.529847 -1.135586,-0.469979 -1.879684,0.274122 -0.610248,0.610245 -0.649433,0.823809 -0.649433,3.539477 0,3.222228 -0.08312,3.396347 -1.685658,3.530943 l -1.01627,0.08535 0.03832,-5.027083 c 0.042,-5.510578 0.0938,-5.688542 1.655849,-5.688542 0.602181,0 0.743181,0.117128 0.743181,0.61736 0,0.934043 0.220014,0.984438 1.249066,0.286105 1.754288,-1.190493 3.251546,-0.764643 4.11254,1.169683 0.439896,0.988285 0.569632,1.919362 0.65123,4.673727 0.05605,1.891771 0.0024,3.582816 -0.119126,3.757877 -0.200412,0.288605 -2.441237,0.812001 -2.463557,0.575419 z M -43.715501,27.95294 c -0.05807,-0.125177 -0.06404,-2.511097 -0.01328,-5.302044 l 0.09231,-5.074446 0.812863,-0.283366 c 1.351555,-0.471152 1.527662,-0.381813 1.527662,0.774967 0,1.123511 0.246962,1.320297 0.808228,0.644012 0.470638,-0.567082 1.693733,-1.173179 2.36746,-1.173179 0.504656,0 0.54873,0.128572 0.47616,1.389063 -0.07574,1.315524 -0.120737,1.393711 -0.849947,1.476872 -1.082599,0.12346 -2.023947,0.808138 -2.409066,1.752209 -0.180798,0.443198 -0.34974,1.817846 -0.375425,3.054773 -0.02569,1.236927 -0.139687,2.342579 -0.253331,2.457003 -0.313563,0.315717 -2.063364,0.543404 -2.183634,0.284136 z m 9.001078,-0.740608 c -1.404496,-0.954379 -1.893803,-2.194227 -1.777204,-4.50323 0.116099,-2.29906 0.956067,-3.800332 2.593769,-4.635825 1.834398,-0.93584 4.93374,-0.552543 5.40214,0.668086 0.284134,0.740439 0.179303,2.234766 -0.208899,2.977848 -0.502192,0.961271 -1.627018,1.991498 -3.056162,2.799136 -1.483114,0.838136 -1.0452,1.084265 1.593244,0.895485 1.683641,-0.120463 1.836171,-0.08891 1.836171,0.379857 0,0.592116 -0.477081,1.579395 -0.899504,1.861457 -0.160118,0.106913 -1.245748,0.19621 -2.412516,0.198438 -1.816637,0.0035 -2.257816,-0.08865 -3.071039,-0.641252 z m 1.874919,-4.508786 c 2.04035,-1.055106 2.614369,-3.768649 0.64208,-3.035274 -0.874606,0.325213 -1.69019,1.549178 -1.69019,2.536502 0,1.017231 0.02371,1.028513 1.04811,0.498772 z m 3.846682,-33.188828 c -1.070846,-0.103853 -1.429766,-0.218541 -1.102839,-0.352396 0.582909,-0.238665 2.350518,-0.261466 2.933282,-0.03784 0.495448,0.190122 0.564441,0.652776 0.08779,0.588673 -0.181901,-0.02446 -1.045104,-0.11376 -1.918229,-0.198438 z m 24.543966,56.295057 c 0.7779941,-0.412938 1.788623,-2.279965 2.0761827,-3.835519 0.1492991,-0.807633 0.2215859,-1.51829 0.1606338,-1.57924 -0.060949,-0.06095 -0.7140416,0.694846 -1.4513136,1.679546 -0.7372746,0.9847 -1.945751,2.3812 -2.6855048,3.103335 -0.7397539,0.722133 -1.3450067,1.400326 -1.3450067,1.507093 0,0.205883 2.4563704,-0.456628 3.2450086,-0.875215 z M -63.138411,33.517969 c -1.194973,-3.137744 -2.487763,-7.58072 -2.667085,-9.166064 -0.09465,-0.836745 -0.287092,-1.521354 -0.427658,-1.521354 -0.140566,0 -0.180847,0.297738 -0.08951,0.661641 0.09133,0.363903 0.236136,1.227106 0.321784,1.918229 0.345456,2.787603 1.499478,6.534706 2.899199,9.413685 0.761771,1.566825 0.738203,0.728662 -0.03673,-1.306137 z m -2.318461,-21.320361 c -0.08446,-0.211066 -0.147157,-0.148373 -0.159853,0.159854 -0.01149,0.278913 0.05105,0.435184 0.138965,0.347265 0.08792,-0.08792 0.09732,-0.316124 0.02089,-0.507119 z m 0.264583,-1.322916 c -0.08446,-0.211066 -0.147157,-0.148373 -0.159852,0.159853 -0.01149,0.278913 0.05105,0.435184 0.138964,0.347266 0.08792,-0.08792 0.09732,-0.316125 0.02089,-0.507119 z M 4.4759788,8.4769051 C 4.4749204,7.8863498 3.487178,6.0050617 3.2844966,6.2077458 3.2264046,6.2658377 3.3608368,6.9341091 3.5832402,7.6927939 3.9990938,9.111405 4.477733,9.5318041 4.4759788,8.4769051 Z M -62.065738,-0.98194914 c 0.08994,-0.14552086 0.03743,-0.26458336 -0.116677,-0.26458336 -0.154109,0 -0.280198,0.1190625 -0.280198,0.26458336 0,0.14552083 0.0525,0.26458333 0.116677,0.26458333 0.06417,0 0.190261,-0.1190625 0.280198,-0.26458333 z M -3.064691,-3.1436341 c -1.2483147,-1.7112949 -1.8775203,-2.3362317 -2.3521907,-2.3362317 -0.1472406,0 0.1561306,0.4464843 0.6741557,0.9921875 0.5180277,0.5457031 1.3380137,1.5812775 1.8221959,2.3012762 0.4841796,0.719999 0.9246949,1.1759917 0.9789186,1.0133153 0.054226,-0.1626759 -0.4511595,-1.0494222 -1.1230795,-1.9705473 z m -57.545839,0.2330455 c 0,-0.1993255 3.482471,-3.6738211 4.623071,-4.6124845 0.569801,-0.46892 0.958364,-0.9302197 0.863473,-1.0251101 -0.323098,-0.3230983 -5.179669,4.1399921 -6.039658,5.5503239 -0.66976,1.0983664 -0.652268,1.7450491 0.02395,0.8853797 0.291042,-0.3699994 0.529167,-0.7291485 0.529167,-0.798109 z m 58.6756839,-0.085745 c -0.1732809,-0.380307 -0.3605768,-0.5548976 -0.416216,-0.3879791 -0.055642,0.1669187 0.043733,0.478079 0.2208292,0.6914676 0.4798959,0.5782389 0.5485447,0.4716092 0.1953868,-0.3034885 z m -0.045281,-2.874214 c -0.2148178,-0.8559033 -3.3863543,-4.2124024 -5.8408012,-6.1814334 -1.0978065,-0.880693 -3.4453857,-2.28798 -5.6985587,-3.416073 -3.70025,-1.852598 -3.876799,-1.911507 -5.147458,-1.717542 l -1.315791,0.200855 3.829333,1.912578 c 3.735287,1.865609 4.886708,2.55962 9.5178715,5.7368366 2.8425536,1.9501382 3.1030914,2.1790321 3.8898749,3.4174375 0.701921,1.1048251 1.0361295,1.125493 0.7655295,0.047341 z m -4.6554044,-0.4943528 c 0,-0.050206 -0.2678906,-0.3180971 -0.5953125,-0.5953125 l -0.5953125,-0.5040281 0.5040286,0.5953126 c 0.4736624,0.5594469 0.6865964,0.7157616 0.6865964,0.504028 z m 2.3371518,-4.6279186 c -0.2010886,-0.50455 -4.4485585,-4.251242 -5.5536331,-4.898857 -1.0861142,-0.636507 -2.3965772,-1.034694 -4.5887262,-1.394297 -0.574212,-0.0942 -0.281499,0.149128 1.058333,0.879749 1.018646,0.555477 2.422845,1.425444 3.120445,1.933262 4.0845581,2.973354 6.2698629,4.248623 5.9635813,3.480143 z m -38.1686743,-3.845328 c 3.261667,-0.975213 5.747634,-1.312874 9.836134,-1.33601 2.07363,-0.01173 3.77027,-0.102064 3.770313,-0.200733 1.53e-4,-0.359841 -3.080139,-0.550074 -6.459204,-0.398908 -2.416972,0.108126 -4.203647,0.350772 -5.916599,0.803527 -2.175309,0.574961 -3.763703,1.26412 -3.763703,1.632963 0,0.218229 0.378169,0.143457 2.533059,-0.500839 z m -15.655073,65.648386 -0.504028,-0.595313 0.595313,0.504029 c 0.559447,0.473662 0.715762,0.686596 0.504028,0.686596 -0.05021,0 -0.318097,-0.26789 -0.595313,-0.595312 z m -9.713049,-8.73125 c -0.887374,-1.197893 -2.932278,-5.311498 -3.847145,-7.739063 -1.587005,-4.211055 -2.755441,-10.187083 -2.183819,-11.169261 0.212325,-0.364823 0.276769,-0.106659 0.282982,1.133639 0.0053,1.057555 0.367389,2.864734 1.060254,5.291667 1.37583,4.819187 2.24282,7.076654 4.037997,10.514137 0.812509,1.555826 1.434413,2.828777 1.382007,2.828777 -0.0524,0 -0.38193,-0.386954 -0.732276,-0.859896 z m 2.691257,-0.13067 c -0.942276,-1.137182 -1.0487,-1.453155 -0.226191,-0.67156 0.492792,0.468278 0.831908,0.915493 0.753592,0.993809 -0.07832,0.07832 -0.315647,-0.0667 -0.527401,-0.322249 z M 4.8128992,-2.2703567 C 4.051775,-3.5575097 2.591275,-5.5801181 1.5673428,-6.7650421 c -2.06419439,-2.3887494 -2.12650641,-2.9747001 -0.077981,-0.7332853 2.0083197,2.1974228 4.8396894,6.2669106 4.8396894,6.95602051 0,0.34028063 -0.029766,0.61723588 -0.066146,0.61546053 -0.03638,-0.0018521 -0.6888818,-1.05635691 -1.450006,-2.34351034 z M -20.17889,-21.00644 c 0.190995,-0.07643 0.419198,-0.06703 0.507119,0.02089 0.08792,0.08792 -0.06835,0.150453 -0.347266,0.138964 -0.308226,-0.01269 -0.370919,-0.07539 -0.159853,-0.159852 z m -3.389974,-1.142176 c -0.531741,-0.170293 -0.557686,-0.213361 -0.132292,-0.219613 0.291042,-0.0043 0.767292,0.09455 1.058334,0.219613 0.674216,0.289721 -0.02138,0.289721 -0.926042,0 z m -14.762554,-0.397502 c 1.046689,-0.384667 3.607157,-0.825966 3.384262,-0.58328 -0.158322,0.172377 -3.596153,0.989065 -4.050104,0.962139 -0.172871,-0.01025 0.126756,-0.18074 0.665842,-0.378859 z m 13.108908,-0.04231 c 0.181901,-0.0734 0.479557,-0.0734 0.661458,0 0.181901,0.0734 0.03307,0.133452 -0.330729,0.133452 -0.363802,0 -0.51263,-0.06005 -0.330729,-0.133452 z m -1.570963,-0.270095 c 0.190994,-0.07643 0.419198,-0.06703 0.507119,0.02089 0.08792,0.08792 -0.06835,0.150453 -0.347266,0.138964 -0.308226,-0.0127 -0.370919,-0.07539 -0.159853,-0.159852 z m -3.45612,-0.259071 c 0.181901,-0.0734 0.479557,-0.0734 0.661458,0 0.181901,0.0734 0.03307,0.133452 -0.330729,0.133452 -0.363802,0 -0.51263,-0.06005 -0.330729,-0.133452 z"
       id="path563" /></g></svg>
