<?xml version="1.0" encoding="UTF-8"?>
<svg width="112.36mm" height="51.292mm" version="1.1" viewBox="0 0 112.36 51.292" xml:space="preserve" xmlns="http://www.w3.org/2000/svg"><g transform="translate(-25.493 -3.5838)"><rect x="25.636" y="3.7269" width="112.07" height="51.006" rx="56.037" ry="11.699" fill="none" stroke="#cfcfcf" stroke-width=".886"/><path d="m83.179 41.786c0.05433-0.02193 0.14322-0.02193 0.19755 0 0.05433 0.02192 0.0098 0.03986-0.09878 0.03986-0.10866 0-0.1531-0.01794-0.09878-0.03986zm1.5424-0.39753c0.07689-0.02003 0.18356-0.01872 0.23707 0.0029 0.05351 0.02165-0.0095 0.03803-0.13979 0.03643-0.13038-0.0016-0.17416-0.01932-0.09727-0.03935zm-4.3279-0.62841c-0.90522-0.10433-2.1605-0.47336-3.3584-0.98725-1.1527-0.49455-1.4071-0.62152-1.6557-0.82675-0.11069-0.09133-0.28013-0.20756-0.37656-0.25827-0.09642-0.05071-0.27152-0.26046-0.38911-0.46611-0.11759-0.20565-0.3765-0.53468-0.57538-0.73118-0.98796-0.9762-1.9814-2.4477-2.4376-3.6105-0.25692-0.65494-0.7251-2.0438-0.88538-2.6264-0.08322-0.30254-0.10804-0.33117-0.17832-0.2056-0.08283 0.14802-0.06184 0.55588 0.09782 1.9004 0.07859 0.6619 0.54482 2.2353 0.7323 2.4713 0.04399 0.05537 0.05795 0.1227 0.03106 0.14959-0.0269 0.0269-0.07126-0.0093-0.09856-0.08048-0.02731-0.07116-0.0806-0.11026-0.11842-0.08688-0.08033 0.04964 0.44194 1.0565 0.89109 1.7179 0.17124 0.25217 0.65563 0.81796 1.0764 1.2573 0.9164 0.95689 0.68411 0.89161-0.29126-0.08185-0.64574-0.64447-1.4015-1.7346-1.5523-2.2392-0.03025-0.10117-0.1402-0.33252-0.24434-0.5141-0.22743-0.39655-0.25097-0.56904-0.05602-0.41046 0.11863 0.0965 0.12633 0.09104 0.06988-0.04959-0.03489-0.08692-0.09349-0.2825-0.13023-0.43462-0.03674-0.15212-0.15708-0.53371-0.26744-0.84799-0.11036-0.31428-0.20069-0.74099-0.20075-0.94824-6e-5 -0.20726-0.0483-0.66131-0.10721-1.009-0.26467-1.5623-0.08049-4.9171 0.30376-5.5332 0.0548-0.08788 0.12469-0.31901 0.1553-0.51364 0.05696-0.36215 0.44355-1.3465 0.84208-2.1442 0.16808-0.33638 0.19775-0.45673 0.11998-0.48657-0.05683-0.0218-0.15344-8e-3 -0.21468 0.03086-0.06125 0.03878-0.08024 0.07105-0.04221 0.07171 0.03803 6.34e-4 -0.09022 0.15393-0.28502 0.34056-0.21976 0.21056-0.46384 0.57044-0.64312 0.94824-0.15892 0.3349-0.30444 0.6089-0.32336 0.6089-0.03618 0 0.15223-0.50823 0.26364-0.71119 0.03579-0.06519 0.19684-0.35855 0.35789-0.65192 0.2159-0.39326 0.26197-0.5334 0.17538-0.5334-0.15881 0-0.36553 0.31163-0.70766 1.0668-0.18553 0.40948-0.28568 0.56258-0.28429 0.43462 0.0012-0.10866 0.06264-0.31019 0.13661-0.44788 0.69904-1.3011 1.3591-2.2882 1.9464-2.9105 0.20504-0.21731 0.35125-0.35215 0.32492-0.29967-0.03739 0.07451-0.0083 0.07448 0.13251-1.04e-4 0.31743-0.16811 0.93109-0.61447 0.93109-0.67724 0-0.03337 0.13522-0.13667 0.30048-0.22954 0.16526-0.09288 0.36973-0.24594 0.45436-0.34014 0.25574-0.28459 1.4528-1.0368 2.0055-1.2603 0.98654-0.39887 2.4184-0.86067 3.2057-1.0339 0.82185-0.18081 2.195-0.23479 3.2793-0.1289 1.4377 0.14038 1.7981 0.15 2.2126 0.05902 0.61504-0.13499 0.8196-0.12511 1.0775 0.05202 0.12448 0.08548 0.48141 0.24766 0.7932 0.36038 0.31179 0.11273 0.82053 0.35311 1.1305 0.53417 0.65966 0.38526 2.6049 2.1155 3.1305 2.7845 0.20026 0.2549 0.47077 0.54184 0.60114 0.63764 0.13037 0.09581 0.32352 0.33421 0.42924 0.52978 0.10572 0.19558 0.29842 0.49783 0.42824 0.67167 0.12982 0.17385 0.32478 0.48499 0.43325 0.69143 0.10847 0.20645 0.22544 0.37535 0.25995 0.37535 0.03451 0 0.10915 0.18669 0.16587 0.41486 0.05672 0.22817 0.16911 0.6152 0.24976 0.86008 0.14945 0.45377 0.46721 2.3179 0.46721 2.7408 0 0.1283-0.05907 0.4162-0.13129 0.63977-0.12981 0.40193-0.27981 0.49242-0.32839 0.1981-0.01379-0.08352-0.13621-0.22296-0.27206-0.30989-0.16512-0.10565-0.28941-0.28147-0.37497-0.53041l-0.12798-0.37237-0.14738 0.51538c-0.09123 0.31901-0.20499 0.54621-0.29857 0.59629-0.12946 0.06928-0.14443 0.13959-0.1042 0.48915 0.11513 1.0004 0.0798 1.3074-0.31529 2.7393-0.28869 1.0463-0.59517 1.8475-0.94786 2.4777-0.13421 0.23985-0.26634 0.67124-0.35245 1.1507-0.23799 1.325-0.58263 1.7829-1.5891 2.1114-0.23287 0.076-0.51229 0.18445-0.62095 0.24097s-0.25288 0.103-0.3205 0.10326c-0.06762 2.38e-4 -0.38765 0.17185-0.71119 0.38129-0.61701 0.39943-1.1392 0.68622-1.7341 0.95243-0.19557 0.08753-0.55117 0.26223-0.79021 0.38825-0.74007 0.39015-1.1901 0.57487-1.6105 0.66112-0.22247 0.04563-0.54672 0.1134-0.72057 0.15059-0.30348 0.06492-1.7991 0.08024-2.2916 0.02349zm4.1309-1.5987c0.748-0.13402 1.0144-0.22446 1.6595-0.56338 0.89074-0.46804 1.9687-1.3646 2.8172-2.3431 0.30742-0.35456 0.61907-0.66743 0.69257-0.69528 0.15087-0.05717 0.62908-0.78546 1.0059-1.5319 0.35668-0.70657 0.76205-1.9789 0.9085-2.8513 0.12296-0.73248 0.16863-2.4033 0.07523-2.7518-0.04868-0.18168-0.29457-0.24479-0.38481-0.09878-0.09082 0.14695-0.35118 0.0802-0.48522-0.12439-0.19647-0.29984-0.19476-1.3166 0.0029-1.7294 0.20095-0.41957 0.18124-0.66924-0.10028-1.2708-0.31367-0.6703-0.58351-1.0526-1.2844-1.8196-0.62932-0.68863-2.0677-2.0097-2.1883-2.0097-0.04069 0-0.11607-0.05072-0.1675-0.1127-0.23251-0.28016-1.5938-1.1178-2.0988-1.2914-0.86612-0.29775-2.1241-0.37854-3.3905-0.21772-0.56449 0.07168-1.054 0.14742-1.0878 0.1683-0.03378 0.02088-0.32013 0.08982-0.63633 0.15319-2.3648 0.47397-2.3825 0.47897-3.0673 0.86728-1.4212 0.80593-2.2669 1.4547-2.7652 2.1212-0.19411 0.25962-0.44639 0.58163-0.56063 0.71558-0.29548 0.34647-1.1226 2.0249-1.3661 2.7722-0.51708 1.5866-0.60443 3.2041-0.25178 4.6622 0.22442 0.92791 0.95071 2.8868 1.4796 3.9905 0.41856 0.87356 0.82239 1.3908 1.578 2.021 0.83239 0.69428 1.7681 1.1243 3.4251 1.5741 0.73406 0.1993 1.3681 0.383 1.4088 0.40821 0.3708 0.22917 3.4164 0.20204 4.7818-0.04259zm-7.713-7.1019c-0.08479-0.16466-0.36476-1.0292-0.48623-1.5014l-0.08638-0.33584h-1.1731l-0.11817 0.39792c-0.06499 0.21886-0.15989 0.61001-0.21089 0.86923l-0.09272 0.47131h-0.38731c-0.28366 0-0.40041-0.03416-0.43629-0.12764-0.02695-0.07021 0.05145-0.44191 0.17419-0.826l0.22318-0.69836-0.14691-0.3258c-0.16118-0.35742-0.1024-0.46812 0.24984-0.47063 0.14-9.85e-4 0.20804-0.10863 0.38794-0.61362 0.38708-1.0866 0.39001-1.0917 0.67686-1.1741 0.23836-0.06845 0.26416-0.1029 0.2419-0.32289-0.02386-0.23568-0.0086-0.24972 0.3544-0.32716 0.43892-0.09361 0.45944-0.07622 0.53109 0.45029 0.13686 1.0056 0.75386 3.3939 1.0074 3.8993 0.20959 0.41781 0.187 0.5034-0.17062 0.64648-0.39981 0.15998-0.45059 0.15892-0.53817-0.01121zm-0.75185-2.6867c-0.02087-0.07605-0.08018-0.32508-0.1318-0.55339-0.05162-0.22831-0.12134-0.43208-0.15491-0.45283-0.03357-0.02075-0.14152 0.18382-0.23988 0.45461-0.09835 0.27079-0.19557 0.5368-0.21604 0.59112-0.02677 0.07108 0.07741 0.09878 0.37168 0.09878 0.35118 0 0.40352-0.01952 0.37095-0.13829zm12.455 2.7595c-0.04859-0.03003-0.1128-0.15203-0.14269-0.27111-0.06199-0.247-0.08262-0.25271-0.3533-0.09798-0.10866 0.06211-0.40553 0.11419-0.65973 0.11573-0.41687 0.0025-0.48465-0.02126-0.69143-0.24262-0.18629-0.19942-0.22926-0.31568-0.22926-0.62031 0-0.54394 0.32101-0.96212 0.90674-1.1813 0.2434-0.09106 0.51233-0.16557 0.59761-0.16557 0.0853 0 0.15507-0.03121 0.15507-0.06934 0-0.15866-0.26608-0.26726-0.74993-0.30611-0.43434-0.03487-0.5144-0.06421-0.5144-0.18852 0-0.08097 0.07588-0.2231 0.16861-0.31584 0.15006-0.15006 0.22827-0.16362 0.71093-0.12316 0.6421 0.05383 0.94256 0.21121 1.1675 0.61149 0.13918 0.24762 0.16549 0.42824 0.16549 1.1357 0 0.57466 0.03813 0.93254 0.12034 1.1293 0.06619 0.15841 0.09286 0.31544 0.05926 0.34894-0.12416 0.12382-0.62541 0.29354-0.7109 0.24071zm-0.39721-1.0987c0.08612-0.07761 0.13829-0.23925 0.13829-0.42845 0-0.27885-0.01788-0.30382-0.21731-0.30354-0.28717 3.87e-4 -0.70256 0.25992-0.77344 0.48323-0.04254 0.13404-0.01121 0.21512 0.12623 0.3264 0.20317 0.16451 0.49175 0.13367 0.72623-0.07762zm-2.9463 0.99651c-0.0015-0.01642-0.01046-0.5217-0.01976-1.1228-0.01519-0.97952-0.03286-1.1046-0.17033-1.2051-0.21655-0.15825-0.33916-0.14037-0.56139 0.08187-0.18225 0.18226-0.19396 0.24604-0.19396 1.0571 0 0.96236-0.02483 1.0144-0.50344 1.0546l-0.30352 0.02549 0.01146-1.5014c0.01255-1.6458 0.02802-1.699 0.49454-1.699 0.17985 0 0.22196 0.03498 0.22196 0.18438 0 0.27896 0.06571 0.29401 0.37306 0.08545 0.52394-0.35555 0.97112-0.22837 1.2283 0.34934 0.13138 0.29516 0.17012 0.57324 0.1945 1.3959 0.01674 0.565 7.18e-4 1.0701-0.03558 1.1223-0.05986 0.08619-0.7291 0.24251-0.73577 0.17185zm-6.9624-0.11993c-0.01734-0.03738-0.01912-0.74997-4e-3 -1.5835l0.02757-1.5156 0.24277-0.08464c0.40366-0.14072 0.45626-0.11404 0.45626 0.23145 0 0.33554 0.07376 0.39432 0.24139 0.19234 0.14056-0.16936 0.50585-0.35038 0.70707-0.35038 0.15072 0 0.16388 0.03839 0.14222 0.41486-0.02262 0.3929-0.03606 0.41624-0.25385 0.44108-0.32332 0.03687-0.60448 0.24135-0.7195 0.52332-0.054 0.13236-0.10446 0.54293-0.11213 0.91234-0.0077 0.36942-0.04172 0.69964-0.07565 0.73381-0.09366 0.09429-0.61625 0.1623-0.65217 0.08486zm2.6882-0.2212c-0.41947-0.28504-0.56561-0.65533-0.53078-1.3449 0.03467-0.68664 0.28554-1.135 0.77466-1.3845 0.54786-0.2795 1.4735-0.16503 1.6134 0.19953 0.08486 0.22115 0.05356 0.66744-0.06239 0.88937-0.14999 0.2871-0.48593 0.59479-0.91275 0.83599-0.44295 0.25032-0.31216 0.32382 0.47584 0.26745 0.50284-0.03598 0.54839-0.02656 0.54839 0.11345 0 0.17685-0.14249 0.47171-0.26865 0.55594-0.04783 0.03193-0.37206 0.0586-0.72052 0.05926-0.54256 1e-3 -0.67433-0.02647-0.9172-0.19152zm0.55997-1.3467c0.60937-0.31511 0.78082-1.1256 0.19177-0.90652-0.26121 0.09713-0.50479 0.46267-0.50479 0.75756 0 0.3038 0.0071 0.30718 0.31303 0.14897zm1.1489-9.9122c-0.31982-0.03102-0.42702-0.06526-0.32938-0.10524 0.1741-0.07128 0.70201-0.07808 0.87605-0.01134 0.14797 0.05678 0.16858 0.19496 0.02622 0.17581-0.05433-0.0073-0.31214-0.03397-0.5729-0.05926zm7.3303 16.813c0.23236-0.12333 0.53419-0.68094 0.62008-1.1455 0.04459-0.2412 0.06617-0.45346 0.04797-0.47166s-0.21326 0.20752-0.43345 0.50162c-0.2202 0.2941-0.58112 0.71118-0.80206 0.92684-0.22094 0.21568-0.40171 0.41822-0.40171 0.45012 0 0.06149 0.73363-0.13637 0.96916-0.2614zm-17.528-3.6711c-0.3569-0.93712-0.74299-2.264-0.79656-2.7376-0.02827-0.2499-0.08575-0.45436-0.12773-0.45436-0.04198 0-0.05402 0.08892-0.02673 0.1976 0.02728 0.10868 0.07052 0.36649 0.09611 0.5729 0.10317 0.83255 0.44784 1.9517 0.86588 2.8115 0.22751 0.46796 0.22047 0.21762-0.01096-0.3901zm-0.69244-6.3676c-0.02523-0.06303-0.04395-0.04431-0.04774 0.04774-0.0035 0.0833 0.01525 0.12997 0.0415 0.10372 0.02626-0.02626 0.02906-0.09442 0.0062-0.15146zm0.07902-0.3951c-0.02523-0.06303-0.04395-0.04431-0.04774 0.04774-0.0035 0.0833 0.01525 0.12997 0.0415 0.10371 0.02626-0.02626 0.02906-0.09442 0.0062-0.15146zm20.807-0.71612c-3.28e-4 -0.17637-0.29532-0.73825-0.35585-0.67772-0.01735 0.01735 0.0228 0.21694 0.08922 0.44353 0.1242 0.42368 0.26715 0.54924 0.26663 0.23419zm-19.874-2.825c0.02686-0.04346 0.01121-0.07902-0.03484-0.07902-0.04603 0-0.08369 0.03555-0.08369 0.07902 0 0.04346 0.01568 0.07902 0.03484 0.07902s0.05682-0.03555 0.08368-0.07902zm17.621-0.64561c-0.37283-0.5111-0.56074-0.69775-0.70251-0.69775-0.04398 0 0.04663 0.13334 0.20134 0.29633 0.15471 0.16298 0.39961 0.47227 0.54422 0.68731 0.14461 0.21504 0.27617 0.35123 0.29237 0.30264 0.01619-0.04858-0.13474-0.31342-0.33542-0.58852zm-17.186 0.0696c0-0.05954 1.0401-1.0972 1.3807-1.3776 0.17018-0.14005 0.28622-0.27782 0.25788-0.30616-0.0965-0.0965-1.547 1.2365-1.8039 1.6577-0.20003 0.32804-0.19481 0.52117 0.0071 0.26442 0.08692-0.1105 0.15804-0.21777 0.15804-0.23836zm17.524-0.02561c-0.05175-0.11359-0.10768-0.16572-0.1243-0.11587-0.01662 0.04986 0.01306 0.14279 0.06595 0.20651 0.14332 0.1727 0.16383 0.14086 0.05835-0.09064zm-0.01352-0.85841c-0.06416-0.25563-1.0114-1.2581-1.7444-1.8462-0.32787-0.26303-1.029-0.68334-1.702-1.0202-1.1051-0.5533-1.1579-0.57089-1.5374-0.51296l-0.39297 0.05998 1.1437 0.57122c1.1156 0.55719 1.4595 0.76446 2.8426 1.7134 0.84896 0.58243 0.92677 0.6508 1.1618 1.0207 0.20964 0.32996 0.30945 0.33614 0.22863 0.01414zm-1.3904-0.14765c0-0.015-0.08002-0.095-0.1778-0.17779l-0.17779-0.15054 0.15054 0.1778c0.14147 0.16708 0.20506 0.21377 0.20506 0.15054zm0.69802-1.3822c-0.06006-0.15069-1.3286-1.2697-1.6586-1.4631-0.32438-0.1901-0.71576-0.30902-1.3705-0.41642-0.17149-0.02813-0.08408 0.04454 0.31609 0.26274 0.30423 0.1659 0.72361 0.42572 0.93195 0.5774 1.2199 0.88802 1.8726 1.2689 1.7811 1.0394zm-11.4-1.1484c0.97413-0.29126 1.7167-0.3921 2.9376-0.39902 0.61932-0.0035 1.126-0.03048 1.1261-0.05995 4.5e-5 -0.10747-0.91992-0.16429-1.9292-0.11914-0.72185 0.03229-1.2555 0.10477-1.7671 0.23998-0.64969 0.17172-1.1241 0.37754-1.1241 0.4877 0 0.06518 0.11294 0.04284 0.75652-0.14958zm-4.6756 19.607-0.15054-0.17779 0.17779 0.15054c0.16708 0.14147 0.21377 0.20506 0.15054 0.20506-0.015 0-0.095-0.08002-0.17779-0.1778zm-2.9009-2.6077c-0.26502-0.35777-0.87575-1.5863-1.149-2.3114-0.47397-1.2577-0.82295-3.0425-0.65223-3.3359 0.06341-0.10895 0.08266-0.03185 0.08451 0.33857 0.0016 0.31585 0.10973 0.85559 0.31666 1.5804 0.41091 1.4393 0.66984 2.1136 1.206 3.1402 0.24266 0.46467 0.4284 0.84485 0.41276 0.84485-0.01565 0-0.11407-0.11557-0.2187-0.25681zm0.80378-0.03903c-0.28142-0.33963-0.31321-0.434-0.06756-0.20057 0.14717 0.13986 0.24845 0.27342 0.22507 0.29681-0.02339 0.0234-0.09427-0.01992-0.15751-0.09625zm20.894-13.206c-0.22733-0.38443-0.66352-0.9885-0.96932-1.3424-0.6165-0.71343-0.63511-0.88842-0.02328-0.219 0.59981 0.65629 1.4455 1.8716 1.4455 2.0775 0 0.10163-0.0088 0.18435-0.01976 0.18381-0.01084-5.53e-4 -0.20574-0.31549-0.43306-0.69992zm-7.4641-5.5957c0.05704-0.02282 0.1252-0.02002 0.15146 0.0062 0.02626 0.02626-0.02042 0.04493-0.10371 0.0415-0.09206-0.0037-0.11077-0.02251-0.04774-0.04774zm-1.0125-0.34113c-0.15881-0.05086-0.16656-0.06372-0.03951-0.06559 0.08693-0.0012 0.22916 0.02824 0.31608 0.06559 0.20136 0.08653-0.0064 0.08653-0.27657 0zm-4.409-0.11872c0.31261-0.11488 1.0773-0.24668 1.0107-0.17421-0.04729 0.05149-1.074 0.29539-1.2096 0.28736-0.05162-0.0031 0.03786-0.05398 0.19886-0.11315zm3.9152-0.01263c0.05433-0.02192 0.14322-0.02192 0.19755 0 0.05433 0.02192 0.0098 0.03985-0.09878 0.03985-0.10866 0-0.1531-0.01794-0.09878-0.03985zm-0.46919-0.08066c0.05704-0.02282 0.1252-0.02002 0.15146 0.0062 0.02626 0.02626-0.02042 0.04493-0.10372 0.0415-0.09206-0.0037-0.11078-0.02251-0.04774-0.04774zm-1.0322-0.07737c0.05433-0.02192 0.14322-0.02192 0.19755 0 0.05433 0.02192 0.0098 0.03985-0.09878 0.03985-0.10866 0-0.1531-0.01794-0.09878-0.03985z" fill="#cfcfcf" stroke-width=".063432"/></g></svg>
